:SAMPLES-PER-SECOND 30
:FULLY-SPECIFIED
:DEGREES
500
root  -64.2985 37.8971 16.2882 -145.205 -2.32281 178.44
RightUpLeg  -67.4143 -30.1556 10.9813
RightLeg  25.4598 -10.5515 -5.64886
RightFoot  8.59448 -0.225069 1.61625
RightToes  0.00048216 0.542163 -0.142577
Spine  67.9129 -2.92562 4.08556
Spine1  10.0239 2.71143 -7.7749
HEad  -37.5003 -5.36605 7.28516
LeftShoulder1  5.82684 -30.3195 -9.68887
LeftArm  -75.3361 -68.1337 27.2934
LeftForeArm  16.4523 -0.801227 0.499243
LeftHand  -0.25398 0.0180481 5.50724
RightShoulder  1.37385 7.59357 4.51774
RightArm  -93.0971 78.3941 -38.144
RightForeArm  -12.9274 -3.90575 2.70214
RightHand  -0.850044 -0.653071 -20.5377
LeftUpLeg  -71.8896 26.4102 -36.424
LeftLeg  31.8404 -3.87436 -2.23317
LeftFoot  -4.88354 -0.728916 13.3786
LeftToes  1.06246e-005 4.65856e-005 -8.18501e-006
501
root  -64.2385 38.0749 16.4593 -146.646 -2.11029 178.485
RightUpLeg  -65.2599 -30.3845 10.6097
RightLeg  23.8278 -10.435 -5.21947
RightFoot  9.34373 -0.230103 1.61251
RightToes  0.00048216 0.542163 -0.142577
Spine  67.5639 -2.93412 4.14073
Spine1  9.8744 2.73124 -7.85533
HEad  -37.2903 -5.78527 7.51232
LeftShoulder1  5.82983 -30.0555 -9.85322
LeftArm  -73.6201 -69.3249 25.0835
LeftForeArm  17.7157 0.443412 0.345871
LeftHand  -0.25398 0.0180481 5.50724
RightShoulder  1.45279 7.74443 5.12315
RightArm  -97.3095 79.5473 -41.5662
RightForeArm  -6.53878 -3.89002 2.32906
RightHand  -0.14993 -4.5949 -17.171
LeftUpLeg  -70.2638 27.5464 -36.1137
LeftLeg  30.4842 -4.18211 -2.30217
LeftFoot  -4.058 -0.824135 13.2709
LeftToes  1.06246e-005 4.65856e-005 -8.18501e-006
502
root  -64.1667 38.2525 16.6348 -148.347 -1.82501 178.434
RightUpLeg  -62.8694 -30.7156 10.0502
RightLeg  22.2141 -10.2576 -4.78571
RightFoot  10.1333 -0.235629 1.61071
RightToes  0.00048216 0.542163 -0.142577
Spine  66.9001 -2.89845 4.03362
Spine1  10.3107 2.66526 -7.78533
HEad  -37.0691 -5.9702 7.71744
LeftShoulder1  5.83012 -29.7546 -10.0333
LeftArm  -69.4183 -69.952 20.325
LeftForeArm  18.2139 1.28088 0.105374
LeftHand  -0.25398 0.0180481 5.50724
RightShoulder  1.48647 7.92874 5.221
RightArm  -97.1812 80.7455 -41.3817
RightForeArm  2.64444 -3.41511 2.18708
RightHand  0.182212 -7.23923 -12.9748
LeftUpLeg  -68.302 28.7793 -35.6407
LeftLeg  29.1088 -4.3739 -2.28227
LeftFoot  -3.28064 -0.904904 13.0634
LeftToes  1.06246e-005 4.65856e-005 -8.18501e-006
503
root  -64.0876 38.4261 16.7995 -150.211 -1.43576 178.328
RightUpLeg  -60.3342 -30.9833 9.26041
RightLeg  20.738 -9.97161 -4.35789
RightFoot  10.8699 -0.187632 1.33877
RightToes  0.00048216 0.542163 -0.142577
Spine  66.0045 -2.64993 3.85657
Spine1  10.9387 2.66113 -7.36945
HEad  -36.8164 -6.28651 7.83954
LeftShoulder1  6.09631 -29.9315 -10.8018
LeftArm  -61.9209 -69.5342 12.6561
LeftForeArm  17.8344 1.38331 -0.437578
LeftHand  -0.25398 0.0180481 5.50724
RightShoulder  1.48343 7.99804 5.10318
RightArm  -87.2856 81.9962 -31.4101
RightForeArm  7.19147 -1.93083 2.63575
RightHand  0.0852576 -6.54834 -12.2956
LeftUpLeg  -66.0969 30.0649 -34.9829
LeftLeg  27.7648 -4.41806 -2.17287
LeftFoot  -2.60371 -0.966021 12.7929
LeftToes  1.06246e-005 4.65856e-005 -8.18501e-006
504
root  -64.0004 38.5967 16.9418 -152.318 -0.992859 178.123
RightUpLeg  -57.5381 -31.1539 8.04972
RightLeg  19.587 -9.71337 -4.00891
RightFoot  11.5237 -0.0666072 0.723515
RightToes  0.00048216 0.542163 -0.142577
Spine  65.1257 -2.42081 3.61795
Spine1  11.4106 2.57573 -6.96234
HEad  -36.3683 -6.55393 8.04654
LeftShoulder1  6.57402 -29.9991 -12.3237
LeftArm  -52.8515 -68.1733 3.05979
LeftForeArm  17.3842 0.644427 -1.04674
LeftHand  -0.25398 0.0180481 5.50724
RightShoulder  1.58304 8.32261 5.64914
RightArm  -65.1271 82.5289 -8.2831
RightForeArm  5.7556 0.648557 3.44353
RightHand  -0.253251 -3.67794 -15.48
LeftUpLeg  -63.4712 31.3361 -33.9865
LeftLeg  26.4793 -4.23048 -1.94494
LeftFoot  -1.99842 -1.01204 12.4796
LeftToes  1.06246e-005 4.65856e-005 -8.18501e-006
505
root  -63.9076 38.7595 17.0648 -154.78 -0.522919 177.815
RightUpLeg  -54.2542 -31.2278 6.22823
RightLeg  18.7247 -9.72151 -3.72564
RightFoot  12.1495 0.0216725 0.298759
RightToes  0.00048216 0.542163 -0.142577
Spine  64.453 -2.18328 3.28526
Spine1  11.5939 2.39494 -6.41545
HEad  -35.5713 -6.88692 8.27483
LeftShoulder1  7.19816 -29.5811 -14.6616
LeftArm  -43.9742 -66.1044 -6.93903
LeftForeArm  18.3636 -0.469518 -1.54539
LeftHand  -0.25398 0.0180481 5.50724
RightShoulder  1.81236 8.93099 6.98662
RightArm  -39.9715 81.1847 18.0212
RightForeArm  3.85762 3.4491 4.26392
RightHand  -0.772192 -0.661526 -18.9315
LeftUpLeg  -60.2676 32.5276 -32.4845
LeftLeg  25.3313 -3.70931 -1.57016
LeftFoot  -1.50041 -1.03754 12.108
LeftToes  1.06246e-005 4.65856e-005 -8.18501e-006
506
root  -63.8242 38.9079 17.1737 -157.408 0.0409546 177.515
RightUpLeg  -50.7304 -31.2356 4.13279
RightLeg  17.9227 -9.51981 -3.28742
RightFoot  12.7959 -0.0433024 0.615644
RightToes  0.00048216 0.542163 -0.142577
Spine  63.7603 -1.97805 2.88965
Spine1  11.7518 2.16054 -5.86513
HEad  -34.7013 -7.30556 8.46471
LeftShoulder1  7.76462 -28.7189 -17.2101
LeftArm  -36.2721 -63.2307 -15.5953
LeftForeArm  20.5519 -1.32776 -2.01818
LeftHand  -0.25398 0.0180481 5.50724
RightShoulder  2.08517 9.60391 8.48513
RightArm  -23.4408 78.351 35.1125
RightForeArm  4.50631 5.35293 4.90272
RightHand  -1.13642 0.98931 -20.7004
LeftUpLeg  -56.755 33.575 -30.5828
LeftLeg  24.3567 -2.89622 -1.08999
LeftFoot  -1.17021 -1.03637 11.6805
LeftToes  1.06246e-005 4.65856e-005 -8.18501e-006
507
root  -63.7664 39.045 17.2623 -159.841 0.821655 177.374
RightUpLeg  -47.5297 -31.0856 2.21209
RightLeg  17.2116 -8.04499 -2.49401
RightFoot  13.5794 -0.218023 1.41378
RightToes  0.00048216 0.542163 -0.142577
Spine  62.7284 -1.87354 2.54457
Spine1  12.0329 1.9828 -5.61902
HEad  -34.0632 -7.7215 8.53976
LeftShoulder1  8.22519 -27.8301 -19.538
LeftArm  -30.3698 -59.2961 -21.7383
LeftForeArm  22.433 -1.85807 -2.51026
LeftHand  -0.25398 0.0180481 5.50724
RightShoulder  2.34011 10.1564 9.84934
RightArm  -14.1041 74.857 44.394
RightForeArm  5.85067 6.26258 5.45788
RightHand  -1.33133 1.82359 -21.4346
LeftUpLeg  -53.4595 34.5447 -28.6188
LeftLeg  23.5092 -1.98004 -0.600636
LeftFoot  -0.965957 -1.01619 11.2178
LeftToes  1.06246e-005 4.65856e-005 -8.18501e-006
508
root  -63.7347 39.1867 17.322 -162.038 1.90317 177.511
RightUpLeg  -44.6072 -30.4882 0.339519
RightLeg  16.748 -4.57734 -1.30607
RightFoot  14.6921 -0.493791 2.57327
RightToes  0.00048216 0.542163 -0.142577
Spine  61.5518 -1.81428 2.24996
Spine1  12.1171 1.92704 -5.63892
HEad  -33.4449 -7.9866 8.37272
LeftShoulder1  8.73108 -27.1219 -21.9548
LeftArm  -26.2431 -54.2139 -25.3745
LeftForeArm  23.3636 -2.46431 -3.00509
LeftHand  -0.25398 0.0180481 5.50724
RightShoulder  2.63242 10.686 11.4237
RightArm  -8.89943 70.8972 48.9464
RightForeArm  6.00906 7.02164 6.13559
RightHand  -1.50818 2.63799 -21.8454
LeftUpLeg  -50.5606 35.7637 -26.7265
LeftLeg  22.7688 -1.17903 -0.185934
LeftFoot  -0.814309 -0.983599 10.6964
LeftToes  1.06246e-005 4.65856e-005 -8.18501e-006
509
root  -63.7107 39.3432 17.3533 -164.246 3.27844 177.942
RightUpLeg  -41.2288 -29.2281 -2.05767
RightLeg  16.2553 0.956171 0.43364
RightFoot  15.9085 -1.26538 5.65371
RightToes  0.00048216 0.542163 -0.142577
Spine  60.6626 -1.65237 1.81391
Spine1  11.6832 1.91406 -5.54837
HEad  -32.5139 -7.92971 7.825
LeftShoulder1  9.3624 -26.3898 -24.9245
LeftArm  -23.2691 -48.2596 -27.0723
LeftForeArm  23.8266 -3.30329 -3.54016
LeftHand  -0.25398 0.0180481 5.50724
RightShoulder  3.02574 11.335 13.4526
RightArm  -5.84458 66.5638 50.6417
RightForeArm  5.63826 8.15033 6.86544
RightHand  -1.57454 3.04097 -21.731
LeftUpLeg  -47.6955 37.4122 -24.5696
LeftLeg  22.1714 -0.467746 0.076604
LeftFoot  -0.754088 -0.933551 10.0958
LeftToes  1.06246e-005 4.65856e-005 -8.18501e-006
510
root  -63.6599 39.4937 17.358 -166.451 4.86218 178.452
RightUpLeg  -37.157 -27.5245 -5.1356
RightLeg  15.1597 8.56873 2.83991
RightFoot  16.2704 -2.98266 12.5781
RightToes  0.00048216 0.542163 -0.142577
Spine  59.952 -1.32484 1.01077
Spine1  10.8777 1.81004 -5.20815
HEad  -31.3976 -7.43107 6.89387
LeftShoulder1  10.0246 -25.4291 -28.3869
LeftArm  -20.8142 -41.8931 -27.3144
LeftForeArm  23.9159 -4.11917 -4.15842
LeftHand  -0.25398 0.0180481 5.50724
RightShoulder  3.48999 12.0079 15.7649
RightArm  -3.55224 62.1198 50.8892
RightForeArm  5.50369 9.47642 7.37056
RightHand  -1.48529 2.81786 -21.07
LeftUpLeg  -44.0272 38.3941 -20.9894
LeftLeg  21.744 1.44096 0.0148555
LeftFoot  -0.84136 -0.866796 9.46417
LeftToes  1.06246e-005 4.65856e-005 -8.18501e-006
511
root  -63.5389 39.6017 17.3331 -168.385 6.50333 178.706
RightUpLeg  -32.9554 -25.6245 -8.52558
RightLeg  13.3449 17.1768 5.20403
RightFoot  14.8552 -5.03991 21.9292
RightToes  0.00048216 0.542163 -0.142577
Spine  58.8916 -0.887028 -0.200866
Spine1  10.1025 1.58775 -4.83816
HEad  -30.3162 -6.61462 5.82189
LeftShoulder1  10.5929 -24.3376 -31.8558
LeftArm  -18.7104 -35.4321 -26.6126
LeftForeArm  23.1423 -4.64196 -4.7539
LeftHand  -0.25398 0.0180481 5.50724
RightShoulder  3.9428 12.4667 18.1442
RightArm  -1.73313 57.6875 50.2564
RightForeArm  4.82005 10.8569 7.59834
RightHand  -1.42406 2.6636 -20.6037
LeftUpLeg  -39.0649 36.8395 -15.1733
LeftLeg  21.4718 6.29799 -0.422994
LeftFoot  -0.970797 -0.789768 8.74829
LeftToes  1.06246e-005 4.65856e-005 -8.18501e-006
